<svg width="13" height="22" viewBox="0 0 13 22" fill="none" xmlns="http://www.w3.org/2000/svg">
<path d="M0.497119 21.5157C0.178814 21.2056 1.06221e-07 20.785 1.44562e-07 20.3464C1.82903e-07 19.9078 0.178814 19.4872 0.497119 19.1771L8.90166 10.99L0.497121 2.80297C0.187836 2.49103 0.0166996 2.07324 0.0205678 1.63957C0.0244359 1.20591 0.203001 0.791083 0.517803 0.484427C0.832605 0.177771 1.25846 0.00383084 1.70364 6.19549e-05C2.14882 -0.00370693 2.57771 0.163001 2.89793 0.464282L12.5029 9.82067C12.8212 10.1308 13 10.5514 13 10.99C13 11.4286 12.8212 11.8492 12.5029 12.1594L2.89793 21.5157C2.57953 21.8258 2.14774 22 1.69753 22C1.24731 22 0.81552 21.8258 0.497119 21.5157Z" fill="#1360D2"/>
</svg>
