<svg width="60" height="65" viewBox="0 0 60 65" fill="none" xmlns="http://www.w3.org/2000/svg">
<path d="M14.2731 59.2525C19.8344 59.2525 24.3427 54.7442 24.3427 49.1829C24.3427 43.6216 19.8344 39.1133 14.2731 39.1133C8.71186 39.1133 4.20355 43.6216 4.20355 49.1829C4.20355 54.7442 8.71186 59.2525 14.2731 59.2525Z" stroke="#CD3A55" stroke-width="3" stroke-miterlimit="10" stroke-linecap="round"/>
<path d="M14.2731 51.8042C15.7206 51.8042 16.894 50.6308 16.894 49.1834C16.894 47.7359 15.7206 46.5625 14.2731 46.5625C12.8257 46.5625 11.6523 47.7359 11.6523 49.1834C11.6523 50.6308 12.8257 51.8042 14.2731 51.8042Z" stroke="#CD3A55" stroke-width="3" stroke-miterlimit="10" stroke-linecap="round"/>
<path d="M7.00091 56.9375L4.95389 58.9845" stroke="#CD3A55" stroke-width="3" stroke-miterlimit="10" stroke-linecap="round"/>
<path d="M1.59912 59.7884L3.42268 57.9648L6.18148 60.7236L4.35791 62.5472" stroke="#CD3A55" stroke-width="3" stroke-miterlimit="10" stroke-linecap="round"/>
<path d="M40.2003 14.0137H17.0375C16.9575 14.0137 16.894 13.9502 16.894 13.8702V2.01846C16.894 1.93845 16.9575 1.875 17.0375 1.875H40.2003C40.2803 1.875 40.3438 1.93845 40.3438 2.01846V13.8702C40.3438 13.9502 40.2803 14.0137 40.2003 14.0137Z" stroke="#CD3A55" stroke-width="3" stroke-miterlimit="10" stroke-linecap="round"/>
<path d="M57.8566 55.6714H42.6942C42.6142 55.6714 42.5508 55.6079 42.5508 55.5279V46.1591C42.5508 46.0791 42.6142 46.0156 42.6942 46.0156H57.8566C57.9366 46.0156 58 46.0791 58 46.1591V55.5279C58 55.6079 57.9366 55.6714 57.8566 55.6714Z" stroke="#CD3A55" stroke-width="3" stroke-miterlimit="10" stroke-linecap="round"/>
<path d="M27.3774 46.0156H36.0676C36.1449 46.0156 36.2056 46.0763 36.2056 46.1536V55.5335C36.2056 55.6107 36.1449 55.6714 36.0676 55.6714H25.998" stroke="#CD3A55" stroke-width="3" stroke-miterlimit="10" stroke-linecap="round"/>
<path d="M33.1844 34.1522H24.326C24.1825 34.1522 24.0639 34.0363 24.0639 33.8901V25.0316C24.0639 24.8882 24.1797 24.7695 24.326 24.7695H33.1844C33.3279 24.7695 33.4465 24.8854 33.4465 25.0316V33.8901C33.4465 34.0363 33.3307 34.1522 33.1844 34.1522Z" stroke="#CD3A55" stroke-width="3" stroke-miterlimit="10" stroke-linecap="round"/>
<path d="M54.4271 34.1522H45.5687C45.4252 34.1522 45.3066 34.0363 45.3066 33.8901V25.0316C45.3066 24.8882 45.4224 24.7695 45.5687 24.7695H54.4271C54.5706 24.7695 54.6892 24.8854 54.6892 25.0316V33.8901C54.6892 34.0363 54.5734 34.1522 54.4271 34.1522Z" stroke="#CD3A55" stroke-width="3" stroke-miterlimit="10" stroke-linecap="round"/>
<path d="M11.9417 34.1522H3.08325C2.9398 34.1522 2.82117 34.0363 2.82117 33.8901V25.0316C2.82117 24.8882 2.93704 24.7695 3.08325 24.7695H11.9417C12.0852 24.7695 12.2038 24.8854 12.2038 25.0316V33.8901C12.2038 34.0363 12.088 34.1522 11.9417 34.1522Z" stroke="#CD3A55" stroke-width="3" stroke-miterlimit="10" stroke-linecap="round"/>
<path d="M28.7568 14.0156V24.7749" stroke="#CD3A55" stroke-width="3" stroke-miterlimit="10" stroke-linecap="round"/>
<path d="M28.7568 34.4297V45.4649" stroke="#CD3A55" stroke-width="3" stroke-miterlimit="10" stroke-linecap="round"/>
<path d="M50.2754 34.4297V45.4649" stroke="#CD3A55" stroke-width="3" stroke-miterlimit="10" stroke-linecap="round"/>
<path d="M13.0317 29.4609H24.0669" stroke="#CD3A55" stroke-width="3" stroke-miterlimit="10" stroke-linecap="round"/>
<path d="M33.9985 29.4609H45.0337" stroke="#CD3A55" stroke-width="3" stroke-miterlimit="10" stroke-linecap="round"/>
<path d="M36.7573 50.707H41.7232" stroke="#CD3A55" stroke-width="3" stroke-miterlimit="10" stroke-linecap="round"/>
</svg>
