<svg width="73" height="65" viewBox="0 0 73 65" fill="none" xmlns="http://www.w3.org/2000/svg">
<path d="M35.7176 50.3501C38.3632 50.3501 40.5078 48.2054 40.5078 45.5598C40.5078 42.9142 38.3632 40.7695 35.7176 40.7695C33.072 40.7695 30.9273 42.9142 30.9273 45.5598C30.9273 48.2054 33.072 50.3501 35.7176 50.3501Z" stroke="#CD3A55" stroke-width="3" stroke-miterlimit="10" stroke-linecap="round"/>
<path d="M44.9788 63.1243V56.552C44.9788 55.1245 44.0527 53.8599 42.689 53.432L40.3865 52.707" stroke="#CD3A55" stroke-width="3" stroke-miterlimit="10" stroke-linecap="round"/>
<path d="M26.7757 63.1254V56.5787C26.7757 55.1512 27.7018 53.8866 29.0654 53.4586L31.2722 52.7656" stroke="#CD3A55" stroke-width="3" stroke-miterlimit="10" stroke-linecap="round"/>
<path d="M61.2657 50.3501C63.9113 50.3501 66.0559 48.2054 66.0559 45.5598C66.0559 42.9142 63.9113 40.7695 61.2657 40.7695C58.6201 40.7695 56.4754 42.9142 56.4754 45.5598C56.4754 48.2054 58.6201 50.3501 61.2657 50.3501Z" stroke="#CD3A55" stroke-width="3" stroke-miterlimit="10" stroke-linecap="round"/>
<path d="M70.5269 63.1243V56.552C70.5269 55.1245 69.6008 53.8599 68.2371 53.432L65.9346 52.707" stroke="#CD3A55" stroke-width="3" stroke-miterlimit="10" stroke-linecap="round"/>
<path d="M52.3238 63.1254V56.5787C52.3238 55.1512 53.2499 53.8866 54.6135 53.4586L56.8203 52.7656" stroke="#CD3A55" stroke-width="3" stroke-miterlimit="10" stroke-linecap="round"/>
<path d="M25.179 21.291V4.71023C25.179 3.46157 26.1914 2.44922 27.44 2.44922H67.9466C69.1953 2.44922 70.2077 3.46157 70.2077 4.71023V34.0395C70.2077 35.2882 69.1953 36.3005 67.9466 36.3005H27.4336C26.1882 36.3005 25.179 35.285 25.179 34.0331" stroke="#CD3A55" stroke-width="3" stroke-miterlimit="10" stroke-linecap="round"/>
<path d="M14.1614 23.8491C16.8952 23.8491 19.1113 21.633 19.1113 18.8992C19.1113 16.1654 16.8952 13.9492 14.1614 13.9492C11.4276 13.9492 9.21143 16.1654 9.21143 18.8992C9.21143 21.633 11.4276 23.8491 14.1614 23.8491Z" stroke="#CD3A55" stroke-width="3" stroke-miterlimit="10" stroke-linecap="round"/>
<path d="M1.86633 48.7585V30.3638C1.86633 28.4669 3.09584 26.7935 4.90337 26.2218L7.95957 25.2606C8.35238 25.136 8.78031 25.251 9.06134 25.548L11.6609 28.32" stroke="#CD3A55" stroke-width="3" stroke-miterlimit="10" stroke-linecap="round"/>
<path d="M13.842 32.2073L18.8623 25.4083C19.1337 25.041 19.6063 24.8877 20.0407 24.8047H25.3068H37.34C37.7871 24.9739 38.1511 25.338 38.2725 25.7851V25.9767C38.1511 28.1323 36.5576 29.9526 34.4243 30.2401L21.0275 32.0284V48.7593" stroke="#CD3A55" stroke-width="3" stroke-miterlimit="10" stroke-linecap="round"/>
<path d="M6.65662 33.4297V40.7748" stroke="#CD3A55" stroke-width="3" stroke-miterlimit="10" stroke-linecap="round"/>
<path d="M31.566 21.6107V15.6835C31.566 15.6068 31.6299 15.543 31.7066 15.543H37.8158C37.8924 15.543 37.9563 15.6068 37.9563 15.6835V21.6107" stroke="#CD3A55" stroke-width="3" stroke-miterlimit="10" stroke-linecap="round"/>
<path d="M44.3401 21.6108V13.1288C44.3401 13.0522 44.404 12.9883 44.4807 12.9883H50.5899C50.6665 12.9883 50.7304 13.0522 50.7304 13.1288V21.6108" stroke="#CD3A55" stroke-width="3" stroke-miterlimit="10" stroke-linecap="round"/>
<path d="M57.1142 21.61V8.97645C57.1142 8.89981 57.1781 8.83594 57.2547 8.83594H63.364C63.4406 8.83594 63.5045 8.89981 63.5045 8.97645V21.61" stroke="#CD3A55" stroke-width="3" stroke-miterlimit="10" stroke-linecap="round"/>
<path d="M41.466 24.8047H67.3335" stroke="#CD3A55" stroke-width="3" stroke-miterlimit="10" stroke-linecap="round"/>
</svg>
