<svg width="63" height="65" viewBox="0 0 63 65" fill="none" xmlns="http://www.w3.org/2000/svg">
<path d="M17.0554 55.9402C23.6134 55.9402 28.9298 50.6239 28.9298 44.0658C28.9298 37.5078 23.6134 32.1914 17.0554 32.1914C10.4973 32.1914 5.18097 37.5078 5.18097 44.0658C5.18097 50.6239 10.4973 55.9402 17.0554 55.9402Z" stroke="#CD3A55" stroke-width="3" stroke-miterlimit="10" stroke-linecap="round"/>
<path d="M8.3402 53.2656L5.93719 55.6686" stroke="#CD3A55" stroke-width="3" stroke-miterlimit="10" stroke-linecap="round"/>
<path d="M2 56.6093L4.14052 54.4688L7.37786 57.7061L5.23734 59.8466" stroke="#CD3A55" stroke-width="3" stroke-miterlimit="10" stroke-linecap="round"/>
<path d="M17.3679 28.7526L17.4179 3.73197C17.4179 3.05388 17.9648 2.50391 18.6429 2.50391H49.1632C49.2976 2.50391 49.4257 2.55703 49.5195 2.6539L60.9751 14.4127C61.0658 14.5064 61.1158 14.6314 61.1158 14.7596V61.8979C61.1158 62.576 60.5658 63.1259 59.8877 63.1259H18.8303C18.021 63.1259 17.3679 62.4697 17.3679 61.6604L17.371 60.0011" stroke="#CD3A55" stroke-width="3" stroke-miterlimit="10" stroke-linecap="round"/>
<path d="M51.7913 14.3785H61.0877C61.1564 14.3785 61.1908 14.2941 61.1439 14.2441L49.3726 2.47284C49.3226 2.42284 49.2383 2.45722 49.2383 2.52909V11.8255C49.2414 13.2379 50.382 14.3785 51.7913 14.3785Z" stroke="#CD3A55" stroke-width="3" stroke-miterlimit="10" stroke-linecap="round"/>
<path d="M11.4307 44.0625V49.0623" stroke="#CD3A55" stroke-width="3" stroke-miterlimit="10" stroke-linecap="round"/>
<path d="M17.0554 38.4414V49.0659" stroke="#CD3A55" stroke-width="3" stroke-miterlimit="10" stroke-linecap="round"/>
<path d="M22.6802 41.5625V49.0621" stroke="#CD3A55" stroke-width="3" stroke-miterlimit="10" stroke-linecap="round"/>
<path d="M22.0552 29.6873V25.9344C22.0552 25.7625 22.1927 25.625 22.3645 25.625H28.6205C28.7923 25.625 28.9298 25.7625 28.9298 25.9344V31.8747" stroke="#CD3A55" stroke-width="3" stroke-miterlimit="10" stroke-linecap="round"/>
<path d="M34.5546 32.1946V17.5047C34.5546 17.3328 34.6921 17.1953 34.8639 17.1953H41.1199C41.2917 17.1953 41.4292 17.3328 41.4292 17.5047V32.1946" stroke="#CD3A55" stroke-width="3" stroke-miterlimit="10" stroke-linecap="round"/>
<path d="M47.054 32.187V21.8719C47.054 21.7 47.1915 21.5625 47.3633 21.5625H53.6193C53.7911 21.5625 53.9286 21.7 53.9286 21.8719V32.187" stroke="#CD3A55" stroke-width="3" stroke-miterlimit="10" stroke-linecap="round"/>
<path d="M29.2423 35.3125H56.4285" stroke="#CD3A55" stroke-width="3" stroke-miterlimit="10" stroke-linecap="round"/>
<path d="M32.6797 44.6875H47.9914" stroke="#CD3A55" stroke-width="3" stroke-miterlimit="10" stroke-linecap="round"/>
<path d="M32.6797 49.6914H55.1786" stroke="#CD3A55" stroke-width="3" stroke-miterlimit="10" stroke-linecap="round"/>
</svg>
