<svg width="64" height="64" viewBox="0 0 64 64" fill="none" xmlns="http://www.w3.org/2000/svg">
<path d="M32.0711 62.3371C48.8266 62.3371 62.4096 48.7541 62.4096 31.9986C62.4096 15.2431 48.8266 1.66016 32.0711 1.66016C15.3157 1.66016 1.73267 15.2431 1.73267 31.9986C1.73267 48.7541 15.3157 62.3371 32.0711 62.3371Z" stroke="#C1092A" stroke-opacity="0.8" stroke-width="3" stroke-miterlimit="10" stroke-linecap="round"/>
<path d="M45.8753 35.638C47.2995 35.638 48.4541 34.4835 48.4541 33.0592C48.4541 31.635 47.2995 30.4805 45.8753 30.4805C44.4511 30.4805 43.2965 31.635 43.2965 33.0592C43.2965 34.4835 44.4511 35.638 45.8753 35.638Z" stroke="#C1092A" stroke-opacity="0.8" stroke-width="3" stroke-miterlimit="10" stroke-linecap="round"/>
<path d="M27.9751 24.4153C29.3993 24.4153 30.5539 23.2608 30.5539 21.8366C30.5539 20.4124 29.3993 19.2578 27.9751 19.2578C26.5509 19.2578 25.3963 20.4124 25.3963 21.8366C25.3963 23.2608 26.5509 24.4153 27.9751 24.4153Z" stroke="#C1092A" stroke-opacity="0.8" stroke-width="3" stroke-miterlimit="10" stroke-linecap="round"/>
<path d="M39.5043 45.9544C40.9285 45.9544 42.083 44.7999 42.083 43.3756C42.083 41.9514 40.9285 40.7969 39.5043 40.7969C38.0801 40.7969 36.9255 41.9514 36.9255 43.3756C36.9255 44.7999 38.0801 45.9544 39.5043 45.9544Z" stroke="#C1092A" stroke-opacity="0.8" stroke-width="3" stroke-miterlimit="10" stroke-linecap="round"/>
<path d="M24.6534 16.8841C22.3356 13.2192 20.6275 9.12958 19.6719 4.75781" stroke="#C1092A" stroke-opacity="0.8" stroke-width="3" stroke-miterlimit="10" stroke-linecap="round"/>
<path d="M40.6872 31.0367C37.5623 29.5714 34.668 27.6934 32.0771 25.4727" stroke="#C1092A" stroke-opacity="0.8" stroke-width="3" stroke-miterlimit="10" stroke-linecap="round"/>
<path d="M61.7061 34.2937C60.0982 34.5 58.4629 34.6062 56.8004 34.6062C54.8739 34.6062 52.9838 34.4636 51.1332 34.1875" stroke="#C1092A" stroke-opacity="0.8" stroke-width="3" stroke-miterlimit="10" stroke-linecap="round"/>
<path d="M34.0708 40.4115C24.4444 35.8334 13.1524 35.4511 3.11952 39.6318" stroke="#C1092A" stroke-opacity="0.8" stroke-width="3" stroke-miterlimit="10" stroke-linecap="round"/>
<path d="M9.94508 50.8387C13.6251 48.4663 16.8653 45.4779 19.5199 42.0254C21.856 38.9916 23.74 35.5967 25.0779 31.95C25.627 30.4573 26.0821 28.9192 26.4401 27.3477" stroke="#C1092A" stroke-opacity="0.8" stroke-width="3" stroke-miterlimit="10" stroke-linecap="round"/>
<path d="M50.544 55.5593C49.7249 54.1607 48.8086 52.8015 47.7923 51.4848C46.5211 49.8405 45.1407 48.3266 43.6693 46.9492" stroke="#C1092A" stroke-opacity="0.8" stroke-width="3" stroke-miterlimit="10" stroke-linecap="round"/>
<path d="M36.103 47.5078C30.7483 53.0324 24.4743 56.846 18.1942 58.5844" stroke="#C1092A" stroke-opacity="0.8" stroke-width="3" stroke-miterlimit="10" stroke-linecap="round"/>
<path d="M43.4178 38.1172C43.2266 38.4448 43.0325 38.7695 42.8322 39.0941" stroke="#C1092A" stroke-opacity="0.8" stroke-width="3" stroke-miterlimit="10" stroke-linecap="round"/>
<path d="M49.2334 7.45312C50.5926 13.7241 50.1436 20.9325 47.7954 28.1257" stroke="#C1092A" stroke-opacity="0.8" stroke-width="3" stroke-miterlimit="10" stroke-linecap="round"/>
<path d="M33.0784 19.5038C39.3615 16.1028 44.419 11.5248 47.7319 6.39453" stroke="#C1092A" stroke-opacity="0.8" stroke-width="3" stroke-miterlimit="10" stroke-linecap="round"/>
<path d="M3.11952 25.123C8.86562 25.9087 15.1457 25.5932 21.4986 23.9913C21.8657 23.9003 22.2297 23.8032 22.5907 23.7031" stroke="#C1092A" stroke-opacity="0.8" stroke-width="3" stroke-miterlimit="10" stroke-linecap="round"/>
</svg>
