<svg width="20" height="20" viewBox="0 0 20 20" fill="none" xmlns="http://www.w3.org/2000/svg">
<path fill-rule="evenodd" clip-rule="evenodd" d="M19.3548 9.67742C19.3548 15.0218 15.0218 19.3548 9.67742 19.3548C4.33306 19.3548 0 15.0218 0 9.67742C0 4.33306 4.33306 0 9.67742 0C15.0218 0 19.3548 4.33306 19.3548 9.67742ZM10.0242 7.14435C9.08307 7.53548 7.20161 8.34597 4.38065 9.575C3.92258 9.75726 3.68226 9.93548 3.66048 10.1097C3.62339 10.4048 3.99274 10.521 4.49435 10.6782C4.5629 10.7 4.63387 10.7218 4.70645 10.746C5.20081 10.9065 5.86532 11.0944 6.21048 11.1016C6.52419 11.1081 6.87419 10.979 7.26048 10.7145C9.89597 8.93468 11.2565 8.03548 11.3419 8.01613C11.4024 8.00242 11.4863 7.98468 11.5427 8.03548C11.5992 8.08548 11.5935 8.18064 11.5879 8.20645C11.5508 8.3621 10.104 9.70807 9.35403 10.4048C9.12016 10.6218 8.95484 10.7758 8.92097 10.8113C8.84516 10.8895 8.76774 10.9645 8.69355 11.0363C8.23387 11.4782 7.89032 11.8105 8.7129 12.3524C9.10806 12.6129 9.42419 12.8282 9.73952 13.0427C10.0839 13.2774 10.4274 13.5113 10.8726 13.8032C10.9855 13.8774 11.0935 13.954 11.1992 14.029C11.6 14.3153 11.9605 14.5718 12.4056 14.5315C12.6637 14.5073 12.9315 14.2645 13.0669 13.5395C13.3871 11.825 14.0177 8.1121 14.1637 6.58145C14.1726 6.45437 14.1672 6.32668 14.1476 6.20081C14.1358 6.09914 14.0863 6.00559 14.0089 5.93871C13.8935 5.84435 13.7145 5.82419 13.6339 5.82581C13.2702 5.83226 12.7121 6.02661 10.0242 7.14435Z" fill="white"/>
</svg>
