<svg width="20" height="20" viewBox="0 0 20 20" fill="none" xmlns="http://www.w3.org/2000/svg">
<path fill-rule="evenodd" clip-rule="evenodd" d="M19.7098 9.67742C19.7098 15.0218 15.3768 19.3548 10.0324 19.3548C4.68805 19.3548 0.35498 15.0218 0.35498 9.67742C0.35498 4.33306 4.68805 0 10.0324 0C15.3768 0 19.7098 4.33306 19.7098 9.67742ZM10.3792 7.14435C9.43805 7.53548 7.55659 8.34597 4.73563 9.575C4.27756 9.75726 4.03724 9.93548 4.01546 10.1097C3.97837 10.4048 4.34772 10.521 4.84934 10.6782C4.91788 10.7 4.98885 10.7218 5.06143 10.746C5.55579 10.9065 6.2203 11.0944 6.56546 11.1016C6.87917 11.1081 7.22917 10.979 7.61546 10.7145C10.2509 8.93468 11.6114 8.03548 11.6969 8.01613C11.7574 8.00242 11.8413 7.98468 11.8977 8.03548C11.9542 8.08548 11.9485 8.18064 11.9429 8.20645C11.9058 8.3621 10.459 9.70807 9.70901 10.4048C9.47514 10.6218 9.30982 10.7758 9.27595 10.8113C9.20014 10.8895 9.12272 10.9645 9.04853 11.0363C8.58885 11.4782 8.2453 11.8105 9.06788 12.3524C9.46305 12.6129 9.77917 12.8282 10.0945 13.0427C10.4389 13.2774 10.7824 13.5113 11.2276 13.8032C11.3405 13.8774 11.4485 13.954 11.5542 14.029C11.955 14.3153 12.3155 14.5718 12.7606 14.5315C13.0187 14.5073 13.2864 14.2645 13.4219 13.5395C13.7421 11.825 14.3727 8.1121 14.5187 6.58145C14.5276 6.45437 14.5222 6.32668 14.5026 6.20081C14.4908 6.09914 14.4413 6.00559 14.3639 5.93871C14.2485 5.84435 14.0695 5.82419 13.9889 5.82581C13.6251 5.83226 13.0671 6.02661 10.3792 7.14435Z" fill="#646464"/>
</svg>
