<svg width="21" height="16" viewBox="0 0 21 16" fill="none" xmlns="http://www.w3.org/2000/svg">
<path d="M7.70625 7.81395C7.70625 8.52594 7.99044 9.20877 8.49631 9.71222C9.00217 10.2157 9.68826 10.4985 10.4037 10.4985C11.1191 10.4985 11.8052 10.2157 12.311 9.71222C12.8169 9.20877 13.1011 8.52594 13.1011 7.81395C13.1011 7.10197 12.8169 6.41914 12.311 5.91569C11.8052 5.41224 11.1191 5.12941 10.4037 5.12941C9.68826 5.12941 9.00217 5.41224 8.49631 5.91569C7.99044 6.41914 7.70625 7.10197 7.70625 7.81395ZM20.8609 7.19555C18.5778 2.4089 15.1265 0 10.5 0C5.87106 0 2.42223 2.4089 0.139074 7.19795C0.0474951 7.39094 0 7.60172 0 7.81515C0 8.02858 0.0474951 8.23937 0.139074 8.43236C2.42223 13.219 5.87346 15.6279 10.5 15.6279C15.1289 15.6279 18.5778 13.219 20.8609 8.42996C21.0464 8.04166 21.0464 7.59104 20.8609 7.19555ZM10.4037 12.0325C8.0627 12.0325 6.16488 10.1438 6.16488 7.81395C6.16488 5.48415 8.0627 3.59538 10.4037 3.59538C12.7446 3.59538 14.6424 5.48415 14.6424 7.81395C14.6424 10.1438 12.7446 12.0325 10.4037 12.0325Z" fill="#6E6E6E"/>
</svg>
