<svg width="98" height="98" viewBox="0 0 98 98" fill="none" xmlns="http://www.w3.org/2000/svg">
<path d="M8.57632 36.0332L4.05371 34.6719L7.5213 39.5386L7.12425 40.8659L0 38.7181L0.461337 37.1904L4.99151 38.5555L1.52014 33.685L1.91719 32.3652L9.03766 34.5093L8.5801 36.0332H8.57632Z" fill="#1D1D1B"/>
<path d="M13.5903 25.9061L12.7924 27.2826L10.1719 25.7624L8.57235 28.5153L11.1929 30.0355L10.3912 31.4157L3.95898 27.6834L4.76065 26.3032L7.33582 27.7968L8.93537 25.0439L6.3602 23.5503L7.15809 22.1738L13.5903 25.9061Z" fill="#1D1D1B"/>
<path d="M13.4243 14.6535C13.7382 14.4645 14.0256 14.3397 14.2865 14.2716C14.5474 14.2035 14.7894 14.1582 15.0163 14.1279C15.2432 14.0977 15.4171 14.0901 15.5419 14.1052L15.7386 14.1241L15.7877 15.5535C15.7537 15.5535 15.7045 15.546 15.644 15.5384C15.5835 15.5308 15.4663 15.5308 15.2886 15.5384C15.1146 15.5497 14.9407 15.5762 14.7743 15.6216C14.6079 15.667 14.4113 15.7539 14.1882 15.8787C13.9651 16.0035 13.7684 16.1585 13.5983 16.3401C13.1256 16.8468 12.8987 17.4329 12.9214 18.0909C12.9441 18.7488 13.2088 19.3161 13.7193 19.7925C14.226 20.2652 14.8121 20.4921 15.4701 20.4694C16.1281 20.4467 16.6953 20.182 17.1717 19.6715C17.357 19.4749 17.5045 19.2593 17.618 19.0287C17.7314 18.798 17.807 18.5862 17.8448 18.3972C17.8827 18.2081 17.9053 18.0341 17.9129 17.8715C17.9205 17.7089 17.9167 17.5842 17.9016 17.4896L17.8789 17.3535L19.2742 17.3421C19.2856 17.3913 19.2969 17.4594 19.3083 17.5463C19.3196 17.6333 19.3196 17.8073 19.3083 18.0682C19.3007 18.3291 19.2667 18.5825 19.2099 18.8358C19.1532 19.0854 19.0398 19.3803 18.8696 19.7169C18.7032 20.0534 18.4839 20.3635 18.223 20.6471C17.4478 21.4753 16.5176 21.9177 15.4323 21.9668C14.347 22.0198 13.413 21.6795 12.6302 20.9534C11.8512 20.2236 11.4466 19.3161 11.4277 18.2308C11.405 17.1455 11.7832 16.185 12.5546 15.3569C12.8193 15.0695 13.1105 14.835 13.4281 14.646L13.4243 14.6535Z" fill="#1D1D1B"/>
<path d="M22.2844 7.52148L23.1163 8.69373L21.3882 9.91892L24.8596 14.8083L23.5625 15.731L20.0912 10.8416L18.3593 12.0706L17.5273 10.8983L22.2882 7.52148H22.2844Z" fill="#1D1D1B"/>
<path d="M33.541 10.2325L31.673 5.89521L30.1793 11.6808L28.9088 12.2291L25.9668 5.40362L27.434 4.77212L29.3058 9.11322L30.7957 3.32383L32.0625 2.7793L35.0045 9.60859L33.541 10.2401V10.2325Z" fill="#1D1D1B"/>
<path d="M41.8413 0.419922L42.1211 1.82662L40.0414 2.24258L41.2174 8.12273L39.6556 8.43281L38.4796 2.55266L36.396 2.96862L36.1162 1.56192L41.8375 0.419922H41.8413Z" fill="#1D1D1B"/>
<path d="M48.8449 3.51675L50.3196 0.0075629L52.0213 0L49.4386 5.58898C49.136 6.23183 48.7806 6.72341 48.3722 7.05618C47.9638 7.38895 47.4533 7.55911 46.8445 7.55911C46.7008 7.55911 46.5609 7.54777 46.4172 7.51752C46.2773 7.49105 46.1714 7.46458 46.0995 7.43433L45.9899 7.40407V6.02385C46.16 6.09191 46.3718 6.12595 46.6214 6.12595C47.1546 6.12595 47.5592 5.87637 47.8428 5.381L48.0545 5.00664L45.3811 0.0264701L47.0752 0.0189072L48.8411 3.51675H48.8449Z" fill="#1D1D1B"/>
<path d="M60.8926 1.3984L60.6279 2.80888L58.5444 2.41939L57.444 8.31845L55.8784 8.02728L56.9788 2.132L54.8877 1.74251L55.1524 0.332031L60.8926 1.40218V1.3984Z" fill="#1D1D1B"/>
<path d="M69.091 7.85738L73.1712 6.31455L74.8199 7.16537L70.9552 8.64014L71.6019 13.8737L69.9531 13.0228L69.4767 9.19601L68.1456 9.69894L67.17 11.5897L65.752 10.8561L69.159 4.24609L70.5771 4.97969L69.091 7.86116V7.85738Z" fill="#1D1D1B"/>
<path d="M77.4702 18.5138L80.5067 14.8987L74.6682 16.1618L73.6094 15.2731L78.3891 9.58203L79.6105 10.6068L76.5702 14.2256L82.4126 12.9589L83.4676 13.8437L78.6879 19.5348L77.4702 18.51V18.5138Z" fill="#1D1D1B"/>
<path d="M89.9793 21.5047L88.8487 22.3896L87.5403 20.722L82.8173 24.4202L81.8379 23.1686L86.5609 19.4703L85.2525 17.7989L86.3832 16.9141L89.9793 21.5085V21.5047Z" fill="#1D1D1B"/>
<path d="M87.4913 28.357L85.6422 28.5952L84.8632 27.0864L92.808 26.2734L93.587 27.7785L88.3232 33.7872L87.5443 32.2784L88.8073 30.9095L87.4913 28.3608V28.357ZM91.545 27.8806L88.9585 28.1944L89.7904 29.8015L91.545 27.8806Z" fill="#1D1D1B"/>
<path d="M90.5882 41.5465L90.1723 40.0113L92.6869 39.3344L92.3277 38.0033L89.4424 37.2924L89 35.655L92.131 36.4605C92.1348 36.4227 92.1462 36.3735 92.1575 36.3054C92.1726 36.2374 92.2218 36.1164 92.305 35.9349C92.3882 35.7533 92.4865 35.587 92.5999 35.4357C92.7134 35.2845 92.8835 35.1256 93.1142 34.9668C93.3449 34.808 93.602 34.687 93.8894 34.6114C94.5549 34.4336 95.1751 34.513 95.7537 34.8571C96.3322 35.1975 96.7179 35.7269 96.9108 36.4378L97.7654 39.618L90.5882 41.5503V41.5465ZM93.723 36.6042C93.5945 36.8386 93.568 37.0958 93.6436 37.3756L94.0709 38.9638L95.9692 38.4533L95.5419 36.8651C95.4663 36.5853 95.3112 36.3773 95.0806 36.2412C94.8461 36.105 94.589 36.0748 94.3092 36.1504C94.0482 36.2222 93.8554 36.3735 93.7268 36.6042H93.723Z" fill="#1D1D1B"/>
<path d="M6.4436 52.8606L2.09493 52.9136L2.08359 52.006L4.9348 51.972L2.05334 49.7447L2.04199 48.9317L6.39066 48.875L6.402 49.7825L3.55079 49.8166L6.43225 52.0439L6.4436 52.8569V52.8606Z" fill="#1D1D1B"/>
<path d="M6.77225 59.5196C7.31678 59.8486 7.66089 60.3099 7.80837 60.9036C7.88778 61.2326 7.89156 61.5578 7.81972 61.8754C7.74787 62.1931 7.65711 62.4313 7.54745 62.5901L7.39241 62.8246L6.6815 62.3935C6.71931 62.3519 6.76469 62.2952 6.81763 62.2196C6.87057 62.1439 6.93107 61.9964 6.99536 61.7696C7.06343 61.5465 7.06721 61.3196 7.01427 61.0965C6.92729 60.7372 6.71553 60.4612 6.37898 60.2683C6.04243 60.0717 5.67942 60.0225 5.28236 60.1209C4.88909 60.2154 4.58658 60.4309 4.3786 60.7561C4.17062 61.0851 4.11011 61.4292 4.19709 61.7847C4.25003 62.0078 4.35969 62.2044 4.51851 62.3708C4.67733 62.541 4.82103 62.6544 4.9496 62.7149L5.14623 62.8095L4.71515 63.5204C4.68868 63.509 4.65086 63.4901 4.59792 63.4674C4.54876 63.441 4.45801 63.3842 4.33322 63.2973C4.20465 63.2065 4.08743 63.1082 3.98155 62.9985C3.87566 62.8927 3.766 62.7452 3.65256 62.5599C3.53912 62.3746 3.45592 62.1817 3.40677 61.9775C3.26307 61.3839 3.35382 60.8166 3.68281 60.2721C4.0118 59.7276 4.47313 59.3835 5.06682 59.2398C5.65673 59.0961 6.22773 59.1868 6.77225 59.5158V59.5196Z" fill="#1D1D1B"/>
<path d="M8.51953 65.6003C9.10943 65.8461 9.51783 66.2507 9.75228 66.8142C9.98295 67.3776 9.97917 67.9562 9.73337 68.5423C9.48758 69.1284 9.08296 69.5406 8.51953 69.7713C7.95609 70.0019 7.38131 69.9982 6.79519 69.7524C6.20906 69.5066 5.79689 69.102 5.56622 68.5385C5.33177 67.9751 5.33933 67.3965 5.58512 66.8104C5.83092 66.2243 6.23553 65.8159 6.79897 65.5814C7.3624 65.3508 7.93718 65.3545 8.52709 65.6003H8.51953ZM8.96952 68.1679C9.12456 67.8125 9.1359 67.4646 8.99599 67.1243C8.85608 66.7839 8.6065 66.5419 8.24348 66.3982C7.88046 66.2545 7.51366 66.2621 7.1393 66.4171C6.76494 66.5722 6.50024 66.8255 6.34141 67.181C6.18638 67.5364 6.17503 67.8843 6.31873 68.2284C6.45864 68.5688 6.70821 68.8108 7.07123 68.9507C7.43047 69.0906 7.80105 69.0868 8.17542 68.9318C8.54978 68.7768 8.81826 68.5234 8.9733 68.1679H8.96952Z" fill="#1D1D1B"/>
<path d="M12.7662 72.9703C12.9818 73.3257 13.0574 73.666 13.0007 73.9837C12.944 74.3051 12.7738 74.5471 12.494 74.7173C12.3352 74.8118 12.1688 74.8648 11.9986 74.8723C11.8284 74.8799 11.6923 74.8648 11.5978 74.8194L11.4616 74.7551C11.4616 74.7551 11.4692 74.8005 11.473 74.8345C11.4768 74.8685 11.473 74.9404 11.4692 75.0463C11.4616 75.1522 11.4427 75.2467 11.4125 75.3412C11.3822 75.432 11.3293 75.5341 11.2499 75.64C11.1705 75.7496 11.0684 75.8404 10.9436 75.916C10.6222 76.1089 10.2932 76.1505 9.95284 76.0446C9.61251 75.9387 9.32512 75.6853 9.08689 75.2883L7.9638 73.424L11.6923 71.1816L12.7662 72.9665V72.9703ZM10.1003 73.2009L9.09067 73.806L9.74486 74.895C9.8394 75.0501 9.95662 75.1446 10.1041 75.1824C10.2516 75.2202 10.3991 75.19 10.5541 75.0992C10.694 75.016 10.7848 74.8988 10.8264 74.7438C10.8679 74.5925 10.8453 74.4412 10.7545 74.29L10.1003 73.2009ZM12.1725 73.7152C12.199 73.6018 12.1763 73.4883 12.1045 73.3673L11.4995 72.3577L10.7243 72.8266L11.3293 73.8362C11.4011 73.9534 11.4919 74.0291 11.6053 74.0593C11.7188 74.0896 11.8322 74.0669 11.9532 73.995C12.0742 73.9232 12.1461 73.8324 12.1725 73.719V73.7152Z" fill="#1D1D1B"/>
<path d="M12.8493 80.6206C12.7812 80.4769 12.7321 80.3446 12.7094 80.2273C12.6829 80.1063 12.6678 79.9929 12.6602 79.8908C12.6527 79.7887 12.6489 79.7093 12.6527 79.6563L12.664 79.5656L10.8187 81.1046L10.2363 80.4088L15.0388 76.4043L15.6211 77.1001L15.2354 77.4215C15.2921 77.4253 15.3715 77.4366 15.4736 77.4518C15.572 77.4669 15.7459 77.5312 15.9841 77.6484C16.2261 77.7656 16.4266 77.9244 16.5892 78.1173C16.956 78.5597 17.1072 79.0853 17.0392 79.6904C16.9711 80.2992 16.695 80.8021 16.2148 81.2067C15.7308 81.6076 15.1862 81.7891 14.5774 81.7475C13.9686 81.7059 13.477 81.4639 13.1102 81.0214C13.0081 80.8967 12.9212 80.7643 12.8531 80.6206H12.8493ZM14.9896 78.1438C14.6039 78.1211 14.256 78.2383 13.9459 78.4917C13.6396 78.7488 13.4619 79.0664 13.4127 79.4521C13.3636 79.8379 13.4506 80.1631 13.6737 80.4278C13.893 80.6925 14.1993 80.8362 14.585 80.8588C14.9745 80.8815 15.3186 80.7643 15.6287 80.5109C15.935 80.2538 16.1127 79.9362 16.1619 79.5505C16.211 79.1648 16.124 78.8395 15.9009 78.5748C15.6816 78.3101 15.3753 78.1664 14.9896 78.1438Z" fill="#1D1D1B"/>
<path d="M18.4839 83.8689C18.3137 84.1298 18.2494 84.4285 18.291 84.7651C18.3326 85.1016 18.4839 85.389 18.7448 85.6235C18.9339 85.7936 19.1494 85.9071 19.3914 85.9676C19.6334 86.0281 19.8225 86.047 19.9624 86.0281L20.178 85.9941L20.2271 86.826C20.1969 86.8335 20.1553 86.8373 20.0985 86.8449C20.0418 86.8525 19.9359 86.8525 19.7771 86.8487C19.6183 86.8449 19.4633 86.826 19.312 86.792C19.157 86.7617 18.9792 86.6974 18.7713 86.6029C18.5633 86.5083 18.378 86.3836 18.204 86.2323C17.7427 85.8239 17.4969 85.2983 17.4667 84.663C17.4326 84.0277 17.6293 83.4718 18.0528 82.9992C18.4574 82.5416 18.9679 82.2958 19.5843 82.2618C20.2006 82.2277 20.7338 82.413 21.1876 82.8176C21.6414 83.2223 21.8872 83.7139 21.9174 84.2849C21.9515 84.8558 21.7624 85.3739 21.3578 85.8277L21.0212 86.134L18.4839 83.8727V83.8689ZM19.8603 83.0597C19.5654 83.0559 19.2855 83.1429 19.0246 83.3206L20.904 84.9958C21.0666 84.7311 21.1309 84.455 21.0968 84.1638C21.059 83.8727 20.9191 83.6155 20.6695 83.3924C20.4238 83.1731 20.1553 83.0634 19.8603 83.0597Z" fill="#1D1D1B"/>
<path d="M28.0433 87.8925L28.6597 88.2783L26.3492 91.9652L25.5816 91.4849L27.0979 89.0648L25.0144 89.7379L24.7156 87.5711L23.1993 89.9875L22.4316 89.5072L24.7421 85.8203L25.3585 86.206L25.6912 88.6602L28.0471 87.8925H28.0433Z" fill="#1D1D1B"/>
<path d="M30.7655 92.0848C30.6899 92.3874 30.7277 92.6899 30.8752 92.9962C31.0226 93.3025 31.2609 93.5218 31.5823 93.6579C31.8167 93.7562 32.055 93.7941 32.3045 93.7751C32.5503 93.7525 32.7394 93.7109 32.8642 93.6466L33.057 93.5445L33.3709 94.3159C33.3444 94.331 33.3066 94.3499 33.2575 94.3764C33.2083 94.4029 33.1062 94.4369 32.9549 94.4861C32.8037 94.5314 32.6524 94.5655 32.4974 94.5844C32.3424 94.6033 32.1495 94.6033 31.9264 94.5806C31.6995 94.5579 31.4802 94.5012 31.2684 94.4142C30.7012 94.176 30.2966 93.76 30.0621 93.1701C29.8277 92.5802 29.8277 91.9941 30.0735 91.408C30.3079 90.8445 30.7126 90.4475 31.2835 90.213C31.8545 89.9786 32.418 89.9824 32.9814 90.2168C33.5449 90.4513 33.9343 90.837 34.1499 91.3664C34.3654 91.8958 34.3579 92.4441 34.1234 93.0075L33.9041 93.4046L30.7693 92.0924L30.7655 92.0848ZM31.8054 90.871C31.5256 90.9617 31.2911 91.1357 31.102 91.389L33.4238 92.3609C33.4919 92.0584 33.4654 91.7748 33.3331 91.5101C33.2045 91.2454 32.9852 91.0487 32.6789 90.9202C32.3764 90.7954 32.0852 90.7765 31.8054 90.8672V90.871Z" fill="#1D1D1B"/>
<path d="M37.1487 96.3514L36.2676 96.1321L37.3113 91.9082L38.1923 92.1275L37.7802 93.7989L39.8448 94.3094L40.257 92.638L41.1381 92.8573L40.0944 97.0812L39.2133 96.8619L39.6482 95.0997L37.5835 94.5892L37.1487 96.3514Z" fill="#1D1D1B"/>
<path d="M44.4398 97.7352L43.536 97.6558L43.9141 93.3223L44.8179 93.4017L44.6704 95.1185L46.7918 95.3037L46.9393 93.587L47.8431 93.6664L47.4649 97.9999L46.5611 97.9205L46.72 96.113L44.5986 95.9277L44.4398 97.7352Z" fill="#1D1D1B"/>
<path d="M51.0799 94.2493C51.4997 93.7691 52.0102 93.5082 52.6228 93.4666C53.2316 93.425 53.7761 93.614 54.2563 94.0338C54.7366 94.4535 54.9975 94.9678 55.0391 95.5728C55.0807 96.1816 54.8916 96.7262 54.4757 97.2026C54.0597 97.6829 53.5454 97.9438 52.9366 97.9854C52.3278 98.027 51.7833 97.8379 51.303 97.422C50.8228 97.006 50.5619 96.4917 50.5203 95.8829C50.4787 95.2741 50.6677 94.7296 51.0837 94.2493H51.0799ZM53.6589 94.635C53.3715 94.3741 53.0425 94.2569 52.6757 94.2796C52.3089 94.306 51.9988 94.4649 51.7492 94.7636C51.4997 95.0623 51.39 95.414 51.4165 95.8186C51.4429 96.2232 51.6018 96.556 51.8892 96.8169C52.1765 97.0778 52.5055 97.1951 52.8723 97.1686C53.2391 97.1421 53.5492 96.9833 53.795 96.6846C54.0408 96.3858 54.1542 96.0342 54.1278 95.6296C54.1013 95.2249 53.9425 94.8922 53.6551 94.6312L53.6589 94.635Z" fill="#1D1D1B"/>
<path d="M61.275 92.1225L62.2469 96.3653L61.362 96.5695L60.7229 93.7863L59.1536 97.0762L58.3595 97.2577L57.3877 93.0149L58.2726 92.8107L58.9116 95.5939L60.4809 92.304L61.275 92.1225ZM59.4297 90.9654C59.5204 90.8217 59.5469 90.6591 59.5053 90.4813L60.1708 90.3301C60.2503 90.6855 60.1973 91.007 60.012 91.2981C59.8229 91.5893 59.5431 91.7784 59.1725 91.8616C58.802 91.9485 58.4692 91.8994 58.1705 91.7179C57.8755 91.5364 57.6864 91.2717 57.607 90.9162L58.2688 90.7649C58.3104 90.9389 58.4011 91.075 58.5486 91.1658C58.6923 91.2565 58.8549 91.283 59.0326 91.2452C59.2104 91.2036 59.3427 91.1128 59.4335 90.9654H59.4297Z" fill="#1D1D1B"/>
<path d="M68.1641 87.313L69.0489 86.8555L74.2938 91.2987L73.3673 91.7751L71.9947 90.5953L69.4951 91.881L69.6577 93.6848L68.7313 94.1612L68.1641 87.313ZM69.4006 90.9092L71.2535 89.9563L69.1246 88.0958L69.3968 90.913L69.4006 90.9092Z" fill="#1D1D1B"/>
<path d="M77.3763 85.808C77.3763 85.9933 77.346 86.1408 77.2817 86.2467L77.191 86.4169C77.2137 86.4093 77.2439 86.3979 77.2855 86.3866C77.3271 86.3753 77.4027 86.3639 77.5124 86.3488C77.6221 86.3337 77.728 86.3374 77.8338 86.3526C77.9397 86.3677 78.0569 86.4093 78.1855 86.4811C78.3141 86.5492 78.4313 86.6513 78.5296 86.7837C78.7452 87.0748 78.7981 87.4189 78.6884 87.816C78.5788 88.213 78.2989 88.5798 77.849 88.9126C77.6788 89.0374 77.4973 89.1395 77.3082 89.2113C77.1191 89.2832 76.949 89.3286 76.8015 89.3475C76.654 89.3664 76.5179 89.3739 76.3931 89.3702C76.2683 89.3702 76.1738 89.3588 76.1057 89.3437L76.0074 89.3134L76.1322 88.4891C76.1851 88.5004 76.2532 88.5156 76.3402 88.5307C76.4234 88.5458 76.5784 88.5307 76.7977 88.4929C77.017 88.4551 77.2061 88.3756 77.3687 88.2546C77.6107 88.0769 77.762 87.8954 77.8149 87.7177C77.8716 87.5362 77.849 87.3773 77.7469 87.245C77.6485 87.1089 77.5011 87.0408 77.312 87.0408C77.1229 87.0408 76.9074 87.1316 76.6654 87.3093L76.2608 87.608L75.8297 87.0257L76.2305 86.7269C76.4196 86.587 76.5368 86.4433 76.5822 86.2921C76.6276 86.1446 76.6049 86.0122 76.5179 85.895C76.4309 85.7778 76.3099 85.7173 76.1549 85.7173C75.9998 85.7173 75.8259 85.7854 75.6368 85.9253C75.4969 86.0274 75.3797 86.1559 75.2851 86.3072C75.1906 86.4585 75.1301 86.587 75.1112 86.6929L75.0772 86.8442L74.249 86.7232C74.2528 86.6626 74.2679 86.5795 74.2906 86.4736C74.3133 86.3677 74.4003 86.1862 74.5478 85.9291C74.699 85.6719 74.8994 85.4488 75.149 85.2673C75.5536 84.9686 75.9431 84.8324 76.3213 84.8513C76.6994 84.874 76.9868 85.0177 77.1872 85.2862C77.3082 85.4488 77.3649 85.6228 77.3649 85.808H77.3763Z" fill="#1D1D1B"/>
<path d="M81.4523 79.8418L84.5077 82.935L83.8611 83.5741L81.8569 81.5434L82.2502 85.1661L81.6716 85.7371L78.6162 82.6439L79.2628 82.0048L81.267 84.0354L80.8737 80.4128L81.4523 79.8418Z" fill="#1D1D1B"/>
<path d="M85.6648 74.5175L89.1626 77.1077L88.6219 77.8376L86.3265 76.1359L87.2719 79.6564L86.7879 80.3106L83.29 77.7203L83.8308 76.9905L86.1261 78.6884L85.1808 75.1679L85.6648 74.5137V74.5175Z" fill="#1D1D1B"/>
<path d="M88.0015 65.7772C88.2322 65.2175 88.6103 64.8243 89.1322 64.5974C89.654 64.3705 90.1796 64.3667 90.7052 64.5823C91.2309 64.7978 91.5977 65.1722 91.8094 65.7016C92.0174 66.231 92.0098 66.7755 91.7792 67.3351L91.193 68.7608L93.288 69.6267L92.9098 70.5494L87.041 68.1293L88.0091 65.7848L88.0015 65.7772ZM88.2511 67.5469L90.346 68.4129L90.9321 66.991C91.0531 66.6999 91.0531 66.4125 90.9359 66.1251C90.8187 65.8377 90.6145 65.6335 90.3195 65.5125C90.0246 65.3915 89.7334 65.3915 89.446 65.5125C89.1586 65.6335 88.9582 65.8377 88.8372 66.1289L88.2511 67.5545V67.5469Z" fill="#1D1D1B"/>
<path d="M89.8584 59.9584L90.0777 58.9866L96.8427 57.8105L96.6158 58.824L94.831 59.1227L94.2146 61.8643L95.7007 62.8966L95.4738 63.91L89.8584 59.9584ZM93.4092 61.3122L93.8667 59.2815L91.076 59.7202L93.413 61.3122H93.4092Z" fill="#1D1D1B"/>
<path d="M97.3686 49.2577L97.3383 50.2522L94.5741 50.1728L94.4834 53.3L97.2476 53.3832L97.2173 54.3778L90.8721 54.1925L90.9023 53.1979L93.5796 53.2774L93.6703 50.1501L90.9931 50.0707L91.0233 49.0762L97.3686 49.2615V49.2577Z" fill="#1D1D1B"/>
<path d="M49.5487 33.6136H35.5725C35.2133 33.6136 34.9259 33.3224 34.9259 32.9669C34.9259 32.6115 35.217 32.3203 35.5725 32.3203H49.5487C49.908 32.3203 50.1954 32.6115 50.1954 32.9669C50.1954 33.3224 49.9042 33.6136 49.5487 33.6136Z" fill="#E30613"/>
<path d="M49.5491 33.6125C49.4395 33.6125 49.3298 33.586 49.2277 33.5255L37.1233 26.5374C36.8132 26.3596 36.7073 25.9626 36.8851 25.6525C37.0628 25.3424 37.4599 25.2365 37.7699 25.4143L49.8743 32.4024C50.1844 32.5801 50.2903 32.9772 50.1126 33.2873C49.9916 33.4952 49.776 33.6125 49.5529 33.6125H49.5491Z" fill="#E30613"/>
<path d="M49.5491 33.6135C49.326 33.6135 49.1066 33.4963 48.9894 33.2883L42.0013 21.1839C41.8236 20.8738 41.9294 20.4768 42.2395 20.299C42.5496 20.1213 42.9429 20.2272 43.1244 20.5373L50.1125 32.6417C50.2902 32.9518 50.1843 33.3488 49.8743 33.5265C49.7722 33.5871 49.6625 33.6135 49.5528 33.6135H49.5491Z" fill="#E30613"/>
<path d="M49.5491 33.6131C49.1898 33.6131 48.9024 33.3219 48.9024 32.9665V18.9865C48.9024 18.6272 49.1936 18.3398 49.5491 18.3398C49.9045 18.3398 50.1957 18.631 50.1957 18.9865V32.9627C50.1957 33.3219 49.9045 33.6093 49.5491 33.6093V33.6131Z" fill="#E30613"/>
<path d="M49.5482 33.6135C49.4386 33.6135 49.3289 33.5871 49.2268 33.5265C48.9167 33.3488 48.8109 32.9518 48.9886 32.6417L55.9767 20.5373C56.1544 20.2272 56.5515 20.1213 56.8616 20.299C57.1716 20.4768 57.2775 20.8738 57.0998 21.1839L50.1117 33.2883C49.9907 33.4963 49.7751 33.6135 49.552 33.6135H49.5482Z" fill="#E30613"/>
<path d="M49.5482 33.6125C49.3251 33.6125 49.1058 33.4952 48.9886 33.2873C48.8109 32.9772 48.9167 32.5801 49.2268 32.4024L61.3312 25.4143C61.6413 25.2365 62.0346 25.3424 62.2161 25.6525C62.3938 25.9626 62.2879 26.3596 61.9779 26.5374L49.8734 33.5255C49.7714 33.586 49.6617 33.6125 49.552 33.6125H49.5482Z" fill="#E30613"/>
<path d="M63.5253 33.6136H49.5491C49.1898 33.6136 48.9024 33.3224 48.9024 32.9669C48.9024 32.6115 49.1936 32.3203 49.5491 32.3203H63.5253C63.8845 32.3203 64.1719 32.6115 64.1719 32.9669C64.1719 33.3224 63.8808 33.6136 63.5253 33.6136Z" fill="#E30613"/>
<path d="M70.5924 37.3714C70.8495 37.0084 70.4979 36.5281 70.0781 36.6643C67.2685 37.5643 60.1594 39.4285 49.5486 39.4285C38.9379 39.4285 31.8288 37.5643 29.0192 36.6643C28.5956 36.5281 28.2477 37.0084 28.5049 37.3714L35.3531 47.0519C35.614 47.4187 36.1926 47.2372 36.1926 46.7872V44.2952C36.1926 44.0419 36.4005 43.8339 36.6539 43.8339H62.4434C62.6967 43.8339 62.9047 44.0419 62.9047 44.2952V46.7872C62.9047 47.2372 63.4833 47.4225 63.7442 47.0519L70.5924 37.3714Z" fill="#E30613"/>
<path d="M75.4553 50.3539C75.7011 50.0098 75.391 49.5447 74.9788 49.6355C71.5264 50.422 60.9875 52.5888 49.5486 52.5888C38.1097 52.5888 27.5708 50.422 24.1183 49.6355C23.7062 49.5409 23.3961 50.0061 23.6419 50.3539L30.6187 60.216C30.8796 60.5828 31.4581 60.4012 31.4581 59.9513V57.4593C31.4581 57.2059 31.6661 56.9979 31.9195 56.9979H67.1777C67.431 56.9979 67.639 57.2059 67.639 57.4593V59.9513C67.639 60.4012 68.2176 60.5865 68.4785 60.216L75.4553 50.3539Z" fill="#E30613"/>
<path d="M78.7335 63.6309C78.9755 63.2906 78.6805 62.8331 78.2721 62.9087C74.4113 63.6347 61.3086 65.9263 49.552 65.9263C37.7955 65.9263 24.6928 63.6347 20.8319 62.9087C20.4236 62.8331 20.1286 63.2906 20.3706 63.6309L27.3852 73.5497C27.6461 73.9165 28.2247 73.735 28.2247 73.2812V70.793C28.2247 70.5359 28.4327 70.3317 28.686 70.3317H70.4143C70.6714 70.3317 70.8756 70.5396 70.8756 70.793V73.2812C70.8756 73.7312 71.4542 73.9165 71.7151 73.5497L78.7297 63.6309H78.7335Z" fill="#E30613"/>
</svg>
