<svg width="86" height="86" viewBox="0 0 86 86" fill="none" xmlns="http://www.w3.org/2000/svg">
<path d="M7.55246 31.6212L3.58364 30.4265L6.62662 34.6973L6.27819 35.8621L0.0262985 33.9772L0.431145 32.6366L4.4066 33.8345L1.3603 29.5604L1.70873 28.4023L7.95731 30.2838L7.55578 31.6212H7.55246Z" fill="white"/>
<path d="M11.9525 22.7339L11.2523 23.9418L8.95266 22.6078L7.54897 25.0236L9.84863 26.3576L9.14513 27.5688L3.50051 24.2935L4.20401 23.0823L6.46385 24.3931L7.86754 21.9773L5.6077 20.6665L6.30788 19.4586L11.9525 22.7339Z" fill="white"/>
<path d="M11.8068 12.8593C12.0823 12.6933 12.3345 12.5838 12.5634 12.5241C12.7924 12.4644 13.0048 12.4246 13.2039 12.398C13.403 12.3715 13.5556 12.3648 13.6651 12.3781L13.8377 12.3947L13.8808 13.649C13.851 13.649 13.8078 13.6424 13.7547 13.6358C13.7016 13.6291 13.5988 13.6291 13.4428 13.6358C13.2902 13.6457 13.1375 13.669 12.9915 13.7088C12.8455 13.7486 12.6729 13.8249 12.4771 13.9344C12.2814 14.0439 12.1088 14.18 11.9595 14.3393C11.5447 14.7839 11.3456 15.2983 11.3655 15.8757C11.3854 16.4531 11.6177 16.9509 12.0657 17.369C12.5103 17.7838 13.0247 17.9829 13.6021 17.963C14.1795 17.9431 14.6773 17.7108 15.0954 17.2628C15.258 17.0902 15.3874 16.9011 15.4869 16.6987C15.5865 16.4962 15.6529 16.3104 15.6861 16.1445C15.7192 15.9786 15.7391 15.8259 15.7458 15.6832C15.7524 15.5405 15.7491 15.431 15.7358 15.3481L15.7159 15.2286L16.9404 15.2187C16.9504 15.2618 16.9603 15.3215 16.9703 15.3979C16.9802 15.4742 16.9802 15.6268 16.9703 15.8558C16.9636 16.0848 16.9338 16.3071 16.884 16.5294C16.8342 16.7484 16.7347 17.0073 16.5853 17.3026C16.4393 17.598 16.2469 17.8701 16.0179 18.119C15.3376 18.8457 14.5213 19.2339 13.5689 19.2771C12.6165 19.3235 11.7969 19.0249 11.11 18.3877C10.4264 17.7473 10.0713 16.9509 10.0547 15.9985C10.0348 15.0461 10.3666 14.2032 11.0436 13.4765C11.2759 13.2243 11.5314 13.0186 11.8101 12.8526L11.8068 12.8593Z" fill="white"/>
<path d="M19.582 6.60031L20.312 7.62902L18.7955 8.70419L21.8418 12.9949L20.7036 13.8046L17.6573 9.51388L16.1375 10.5924L15.4074 9.56365L19.5853 6.60031H19.582Z" fill="white"/>
<path d="M29.4603 8.97974L27.821 5.17352L26.5102 10.2507L25.3952 10.7319L22.8135 4.74213L24.101 4.18795L25.7436 7.99749L27.0511 2.917L28.1628 2.43915L30.7445 8.4322L29.4603 8.98638V8.97974Z" fill="white"/>
<path d="M36.7442 0.368256L36.9898 1.60271L35.1646 1.96773L36.1967 7.12786L34.8261 7.39997L33.7941 2.23984L31.9657 2.60487L31.7201 1.37042L36.7409 0.368256H36.7442Z" fill="white"/>
<path d="M42.8902 3.08612L44.1843 0.00663683L45.6776 0L43.4112 4.90461C43.1457 5.46874 42.8337 5.90014 42.4754 6.19216C42.117 6.48418 41.669 6.63351 41.1347 6.63351C41.0086 6.63351 40.8858 6.62355 40.7597 6.59701C40.637 6.57378 40.544 6.55055 40.481 6.524L40.3848 6.49745V5.28623C40.5341 5.34596 40.7199 5.37583 40.9389 5.37583C41.4068 5.37583 41.7619 5.15681 42.0108 4.7221L42.1966 4.39358L39.8505 0.0232289L41.3371 0.0165921L42.8868 3.08612H42.8902Z" fill="white"/>
<path d="M53.4627 1.22711L53.2304 2.46488L51.402 2.12308L50.4363 7.29981L49.0625 7.04429L50.0281 1.87089L48.193 1.52909L48.4253 0.291321L53.4627 1.23043V1.22711Z" fill="white"/>
<path d="M60.6571 6.89524L64.2377 5.54132L65.6845 6.28797L62.2931 7.58215L62.8606 12.1748L61.4137 11.4282L60.9956 8.06995L59.8275 8.5113L58.9714 10.1705L57.727 9.52674L60.7169 3.72615L61.9613 4.36992L60.6571 6.89855V6.89524Z" fill="white"/>
<path d="M68.0104 16.2469L70.6751 13.0745L65.5514 14.1828L64.6223 13.403L68.8168 8.40877L69.8886 9.30806L67.2206 12.4838L72.3475 11.3721L73.2734 12.1486L69.0789 17.1428L68.0104 16.2435V16.2469Z" fill="white"/>
<path d="M78.9878 18.8715L77.9956 19.648L76.8474 18.1846L72.7027 21.43L71.8432 20.3316L75.9879 17.0862L74.8397 15.6194L75.8319 14.8429L78.9878 18.8748V18.8715Z" fill="white"/>
<path d="M76.8044 24.8848L75.1817 25.0938L74.4981 23.7698L81.4701 23.0563L82.1537 24.3771L77.5344 29.65L76.8508 28.326L77.9592 27.1247L76.8044 24.8881V24.8848ZM80.3617 24.4667L78.0919 24.7421L78.822 26.1524L80.3617 24.4667Z" fill="white"/>
<path d="M79.5221 36.4592L79.157 35.1119L81.3638 34.5179L81.0485 33.3498L78.5166 32.7259L78.1283 31.2891L80.876 31.9959C80.8793 31.9627 80.8893 31.9196 80.8992 31.8598C80.9125 31.8001 80.9556 31.6939 81.0286 31.5346C81.1016 31.3753 81.1879 31.2293 81.2875 31.0966C81.387 30.9639 81.5363 30.8245 81.7388 30.6851C81.9412 30.5457 82.1668 30.4395 82.419 30.3732C83.0031 30.2172 83.5473 30.2869 84.055 30.5889C84.5627 30.8875 84.9012 31.3521 85.0705 31.976L85.8204 34.7668L79.5221 36.4625V36.4592ZM82.273 32.122C82.1602 32.3277 82.137 32.5534 82.2033 32.7989L82.5783 34.1927L84.2442 33.7447L83.8692 32.351C83.8028 32.1054 83.6668 31.9229 83.4643 31.8034C83.2586 31.684 83.0329 31.6574 82.7874 31.7238C82.5584 31.7868 82.3892 31.9196 82.2764 32.122H82.273Z" fill="white"/>
<path d="M5.68089 46.3882L1.86471 46.4347L1.85476 45.6382L4.35684 45.6084L1.82821 43.6538L1.81826 42.9404L5.63443 42.8906L5.64439 43.687L3.1423 43.7169L5.67093 45.6714L5.68089 46.3849V46.3882Z" fill="white"/>
<path d="M5.9693 52.2318C6.44715 52.5205 6.74913 52.9254 6.87855 53.4463C6.94823 53.735 6.95155 54.0204 6.8885 54.2992C6.82545 54.5779 6.74581 54.787 6.64957 54.9264L6.51352 55.1321L5.88966 54.7538C5.92284 54.7173 5.96266 54.6675 6.00912 54.6012C6.05558 54.5348 6.10867 54.4054 6.16509 54.2063C6.22482 54.0105 6.22814 53.8114 6.18168 53.6156C6.10535 53.3003 5.91952 53.0581 5.62419 52.8889C5.32885 52.7163 5.01028 52.6732 4.66185 52.7594C4.31673 52.8424 4.05126 53.0315 3.86874 53.3169C3.68623 53.6056 3.63314 53.9076 3.70946 54.2195C3.75592 54.4153 3.85215 54.5879 3.99153 54.7339C4.1309 54.8832 4.257 54.9828 4.36982 55.0359L4.54238 55.1188L4.16408 55.7427C4.14085 55.7327 4.10767 55.7161 4.06121 55.6962C4.01807 55.673 3.93843 55.6232 3.82892 55.5469C3.7161 55.4673 3.61323 55.381 3.52031 55.2847C3.4274 55.1918 3.33116 55.0624 3.23161 54.8998C3.13206 54.7372 3.05905 54.568 3.01591 54.3888C2.88981 53.8678 2.96945 53.37 3.25816 52.8922C3.54686 52.4143 3.9517 52.1123 4.4727 51.9862C4.99037 51.8601 5.49145 51.9398 5.9693 52.2285V52.2318Z" fill="white"/>
<path d="M7.50263 57.5678C8.0203 57.7835 8.37869 58.1386 8.58443 58.633C8.78685 59.1275 8.78353 59.6352 8.56784 60.1495C8.35214 60.6639 7.99707 61.0256 7.50263 61.228C7.00818 61.4304 6.50378 61.4271 5.98943 61.2114C5.47508 60.9957 5.11337 60.6407 4.91095 60.1462C4.7052 59.6518 4.71184 59.144 4.92754 58.6297C5.14323 58.1153 5.4983 57.7569 5.99275 57.5512C6.48719 57.3488 6.99159 57.3521 7.50926 57.5678H7.50263ZM7.89752 59.821C8.03357 59.5091 8.04353 59.2038 7.92075 58.9051C7.79796 58.6065 7.57895 58.3941 7.26038 58.268C6.94181 58.1419 6.61993 58.1485 6.2914 58.2846C5.96288 58.4206 5.73059 58.643 5.59122 58.9549C5.45516 59.2668 5.44521 59.5721 5.57131 59.8741C5.69409 60.1728 5.91311 60.3851 6.23167 60.5079C6.54692 60.6307 6.87213 60.6274 7.20065 60.4913C7.52917 60.3553 7.76478 60.1329 7.90084 59.821H7.89752Z" fill="white"/>
<path d="M11.2293 64.0354C11.4185 64.3473 11.4848 64.646 11.4351 64.9247C11.3853 65.2068 11.236 65.4192 10.9904 65.5685C10.851 65.6515 10.705 65.6979 10.5557 65.7046C10.4064 65.7112 10.2869 65.6979 10.2039 65.6581L10.0845 65.6017C10.0845 65.6017 10.0911 65.6415 10.0944 65.6714C10.0978 65.7012 10.0944 65.7643 10.0911 65.8572C10.0845 65.9501 10.0679 66.0331 10.0413 66.116C10.0148 66.1957 9.96833 66.2853 9.89865 66.3782C9.82896 66.4744 9.73936 66.5541 9.62986 66.6204C9.34779 66.7897 9.05909 66.8262 8.76043 66.7333C8.46177 66.6404 8.20958 66.418 8.00052 66.0696L7.01495 64.4336L10.2869 62.4658L11.2293 64.0321V64.0354ZM8.88985 64.2378L8.00383 64.7688L8.57792 65.7245C8.66088 65.8605 8.76375 65.9435 8.89317 65.9767C9.02259 66.0099 9.152 65.9833 9.28806 65.9037C9.41084 65.8307 9.49048 65.7278 9.52698 65.5917C9.56349 65.459 9.54358 65.3263 9.46394 65.1935L8.88985 64.2378ZM10.7083 64.6891C10.7316 64.5896 10.7117 64.49 10.6486 64.3838L10.1177 63.4978L9.43739 63.9093L9.96833 64.7953C10.0314 64.8982 10.111 64.9646 10.2106 64.9911C10.3101 65.0176 10.4097 64.9977 10.5159 64.9347C10.6221 64.8716 10.6851 64.792 10.7083 64.6924V64.6891Z" fill="white"/>
<path d="M11.3022 70.7489C11.2425 70.6228 11.1994 70.5066 11.1794 70.4038C11.1562 70.2976 11.1429 70.198 11.1363 70.1084C11.1297 70.0188 11.1263 69.9491 11.1297 69.9027L11.1396 69.8231L9.52024 71.1736L9.0092 70.5631L13.2236 67.0489L13.7346 67.6594L13.3961 67.9415C13.4459 67.9448 13.5156 67.9548 13.6052 67.9681C13.6915 67.9813 13.8441 68.0377 14.0532 68.1406C14.2656 68.2435 14.4414 68.3829 14.5841 68.5521C14.906 68.9404 15.0388 69.4016 14.979 69.9326C14.9193 70.4668 14.6771 70.9082 14.2556 71.2632C13.8309 71.615 13.353 71.7743 12.8187 71.7378C12.2845 71.7013 11.8531 71.4889 11.5312 71.1006C11.4416 70.9911 11.3653 70.875 11.3055 70.7489H11.3022ZM13.1804 68.5753C12.842 68.5554 12.5367 68.6583 12.2646 68.8806C11.9958 69.1063 11.8398 69.385 11.7967 69.7235C11.7535 70.062 11.8299 70.3474 12.0256 70.5796C12.2181 70.8119 12.4869 70.938 12.8254 70.9579C13.1672 70.9779 13.4691 70.875 13.7413 70.6527C14.0101 70.427 14.166 70.1483 14.2092 69.8098C14.2523 69.4713 14.176 69.1859 13.9802 68.9536C13.7877 68.7213 13.5189 68.5952 13.1804 68.5753Z" fill="white"/>
<path d="M16.2468 73.5995C16.0975 73.8284 16.0411 74.0906 16.0776 74.3859C16.1141 74.6813 16.2468 74.9335 16.4758 75.1392C16.6417 75.2885 16.8309 75.3881 17.0433 75.4412C17.2556 75.4943 17.4216 75.5109 17.5443 75.4943L17.7335 75.4644L17.7766 76.1945C17.7501 76.2011 17.7136 76.2044 17.6638 76.2111C17.614 76.2177 17.5211 76.2177 17.3817 76.2144C17.2424 76.2111 17.1063 76.1945 16.9736 76.1646C16.8375 76.1381 16.6816 76.0816 16.499 75.9987C16.3165 75.9157 16.1539 75.8062 16.0013 75.6735C15.5964 75.3151 15.3807 74.8538 15.3542 74.2963C15.3243 73.7388 15.4969 73.251 15.8685 72.8362C16.2236 72.4347 16.6716 72.219 17.2125 72.1891C17.7534 72.1593 18.2213 72.3219 18.6195 72.677C19.0177 73.032 19.2334 73.4634 19.26 73.9645C19.2898 74.4656 19.1239 74.9202 18.7688 75.3184L18.4735 75.5872L16.2468 73.6028V73.5995ZM17.4547 72.8893C17.1959 72.886 16.9503 72.9623 16.7214 73.1183L18.3706 74.5884C18.5133 74.3561 18.5697 74.1138 18.5399 73.8583C18.5067 73.6028 18.3839 73.3771 18.1649 73.1814C17.9492 72.9889 17.7136 72.8926 17.4547 72.8893Z" fill="white"/>
<path d="M24.6357 77.1303L25.1766 77.4688L23.1491 80.7042L22.4754 80.2828L23.8061 78.159L21.9777 78.7497L21.7155 76.8482L20.3848 78.9687L19.7112 78.5473L21.7388 75.3118L22.2797 75.6503L22.5717 77.8039L24.6391 77.1303H24.6357Z" fill="white"/>
<path d="M27.0246 80.8093C26.9582 81.0748 26.9914 81.3402 27.1208 81.609C27.2502 81.8778 27.4593 82.0703 27.7414 82.1897C27.9471 82.276 28.1562 82.3092 28.3752 82.2926C28.5909 82.2727 28.7568 82.2362 28.8663 82.1798L29.0355 82.0902L29.311 82.7671C29.2877 82.7804 29.2546 82.797 29.2114 82.8202C29.1683 82.8435 29.0787 82.8733 28.9459 82.9165C28.8132 82.9563 28.6805 82.9862 28.5444 83.0028C28.4084 83.0193 28.2391 83.0193 28.0433 82.9994C27.8442 82.9795 27.6518 82.9297 27.4659 82.8534C26.9682 82.6444 26.6131 82.2793 26.4074 81.7617C26.2016 81.244 26.2016 80.7296 26.4173 80.2153C26.6231 79.7208 26.9781 79.3724 27.4792 79.1667C27.9803 78.9609 28.4747 78.9642 28.9692 79.17C29.4636 79.3757 29.8054 79.7142 29.9946 80.1788C30.1837 80.6434 30.1771 81.1245 29.9713 81.619L29.7789 81.9674L27.0279 80.8159L27.0246 80.8093ZM27.9372 79.7441C27.6916 79.8237 27.4858 79.9764 27.3199 80.1987L29.3574 81.0515C29.4172 80.786 29.3939 80.5372 29.2778 80.3049C29.165 80.0726 28.9725 79.9 28.7037 79.7872C28.4382 79.6777 28.1827 79.6611 27.9372 79.7407V79.7441Z" fill="white"/>
<path d="M32.6261 84.5535L31.853 84.361L32.7688 80.6543L33.542 80.8468L33.1803 82.3135L34.9922 82.7615L35.3539 81.2948L36.1271 81.4872L35.2112 85.1939L34.438 85.0014L34.8196 83.4551L33.0078 83.0071L32.6261 84.5535Z" fill="white"/>
<path d="M39.0245 85.7676L38.2314 85.698L38.5632 81.8951L39.3563 81.9647L39.2269 83.4713L41.0885 83.6339L41.2179 82.1273L42.011 82.197L41.6792 85.9999L40.8861 85.9302L41.0255 84.344L39.1638 84.1814L39.0245 85.7676Z" fill="white"/>
<path d="M44.8515 82.7088C45.2199 82.2873 45.6679 82.0584 46.2055 82.0219C46.7397 81.9854 47.2176 82.1513 47.639 82.5196C48.0604 82.888 48.2894 83.3393 48.3259 83.8702C48.3624 84.4045 48.1965 84.8823 47.8315 85.3005C47.4665 85.7219 47.0151 85.9509 46.4809 85.9874C45.9466 86.0239 45.4688 85.858 45.0473 85.4929C44.6259 85.1279 44.3969 84.6766 44.3604 84.1423C44.3239 83.6081 44.4898 83.1302 44.8549 82.7088H44.8515ZM47.1147 83.0473C46.8625 82.8183 46.5738 82.7154 46.2519 82.7353C45.93 82.7586 45.6579 82.8979 45.4389 83.1601C45.2199 83.4222 45.1237 83.7309 45.1469 84.0859C45.1701 84.441 45.3095 84.733 45.5617 84.962C45.8139 85.191 46.1026 85.2938 46.4245 85.2706C46.7464 85.2474 47.0185 85.108 47.2342 84.8458C47.4499 84.5837 47.5494 84.2751 47.5262 83.92C47.503 83.5649 47.3636 83.2729 47.1114 83.0439L47.1147 83.0473Z" fill="white"/>
<path d="M53.7983 80.8423L54.6511 84.5656L53.8746 84.7448L53.3138 82.3024L51.9366 85.1895L51.2398 85.3487L50.3869 81.6255L51.1634 81.4463L51.7242 83.8886L53.1014 81.0016L53.7983 80.8423ZM52.1789 79.8269C52.2585 79.7008 52.2817 79.5581 52.2452 79.4021L52.8293 79.2694C52.899 79.5813 52.8525 79.8634 52.6899 80.1189C52.524 80.3744 52.2784 80.5404 51.9532 80.6134C51.628 80.6897 51.336 80.6466 51.0738 80.4873C50.815 80.328 50.6491 80.0957 50.5794 79.7838L51.1601 79.651C51.1966 79.8037 51.2763 79.9231 51.4057 80.0028C51.5318 80.0824 51.6745 80.1056 51.8304 80.0725C51.9864 80.036 52.1025 79.9563 52.1822 79.8269H52.1789Z" fill="white"/>
<path d="M59.8437 76.6217L60.6203 76.2202L65.2229 80.1194L64.4099 80.5375L63.2053 79.5021L61.0118 80.6304L61.1545 82.2133L60.3415 82.6314L59.8437 76.6217ZM60.9289 79.7776L62.5549 78.9413L60.6866 77.3087L60.9255 79.7809L60.9289 79.7776Z" fill="white"/>
<path d="M67.9279 75.3011C67.9279 75.4637 67.9014 75.5931 67.845 75.686L67.7653 75.8353C67.7852 75.8287 67.8118 75.8187 67.8483 75.8088C67.8848 75.7988 67.9512 75.7889 68.0474 75.7756C68.1436 75.7623 68.2365 75.7656 68.3295 75.7789C68.4224 75.7922 68.5252 75.8287 68.6381 75.8917C68.7509 75.9515 68.8538 76.0411 68.94 76.1572C69.1292 76.4127 69.1756 76.7147 69.0794 77.0631C68.9832 77.4116 68.7376 77.7335 68.3427 78.0255C68.1934 78.135 68.0341 78.2246 67.8682 78.2876C67.7023 78.3507 67.5529 78.3905 67.4235 78.4071C67.2941 78.4237 67.1746 78.4303 67.0651 78.427C66.9556 78.427 66.8727 78.4171 66.8129 78.4038L66.7267 78.3772L66.8362 77.6538C66.8826 77.6638 66.9424 77.677 67.0187 77.6903C67.0917 77.7036 67.2277 77.6903 67.4202 77.6571C67.6127 77.624 67.7786 77.5543 67.9213 77.4481C68.1337 77.2921 68.2664 77.1328 68.3129 76.9769C68.3626 76.8176 68.3427 76.6782 68.2531 76.5621C68.1669 76.4426 68.0374 76.3829 67.8715 76.3829C67.7056 76.3829 67.5164 76.4625 67.3041 76.6185L66.949 76.8806L66.5707 76.3696L66.9224 76.1074C67.0884 75.9847 67.1912 75.8586 67.2311 75.7258C67.2709 75.5964 67.251 75.4803 67.1746 75.3774C67.0983 75.2745 66.9921 75.2214 66.8561 75.2214C66.72 75.2214 66.5674 75.2812 66.4015 75.4039C66.2787 75.4935 66.1758 75.6064 66.0928 75.7391C66.0099 75.8718 65.9568 75.9847 65.9402 76.0776L65.9103 76.2103L65.1836 76.1041C65.1869 76.051 65.2002 75.978 65.2201 75.8851C65.24 75.7922 65.3163 75.6329 65.4458 75.4073C65.5785 75.1816 65.7544 74.9858 65.9734 74.8265C66.3285 74.5644 66.6702 74.4449 67.0021 74.4615C67.3339 74.4814 67.5861 74.6075 67.762 74.8431C67.8682 74.9858 67.918 75.1385 67.918 75.3011H67.9279Z" fill="white"/>
<path d="M71.5048 70.0654L74.1861 72.7799L73.6187 73.3407L71.8599 71.5587L72.205 74.7377L71.6973 75.2388L69.016 72.5243L69.5835 71.9635L71.3422 73.7455L70.9971 70.5665L71.5048 70.0654Z" fill="white"/>
<path d="M75.2015 65.393L78.2711 67.6661L77.7965 68.3066L75.7822 66.8133L76.6118 69.9027L76.1871 70.4768L73.1176 68.2037L73.5921 67.5632L75.6064 69.0532L74.7768 65.9638L75.2015 65.3897V65.393Z" fill="white"/>
<path d="M77.2521 57.723C77.4545 57.2319 77.7864 56.8868 78.2443 56.6877C78.7022 56.4886 79.1635 56.4853 79.6248 56.6744C80.086 56.8636 80.4079 57.1921 80.5937 57.6567C80.7763 58.1213 80.7696 58.5991 80.5672 59.0902L80.0528 60.3413L81.8912 61.1012L81.5594 61.9109L76.4092 59.7871L77.2587 57.7297L77.2521 57.723ZM77.4711 59.2761L79.3095 60.036L79.8239 58.7883C79.9301 58.5327 79.9301 58.2805 79.8272 58.0283C79.7243 57.7761 79.5451 57.5969 79.2863 57.4908C79.0275 57.3846 78.7719 57.3846 78.5197 57.4908C78.2675 57.5969 78.0917 57.7761 77.9855 58.0317L77.4711 59.2827V59.2761Z" fill="white"/>
<path d="M78.8816 52.6168L79.0741 51.764L85.0107 50.7319L84.8116 51.6213L83.2453 51.8834L82.7044 54.2893L84.0086 55.1952L83.8095 56.0845L78.8816 52.6168ZM81.9976 53.8048L82.3991 52.0228L79.9502 52.4077L82.0009 53.8048H81.9976Z" fill="white"/>
<path d="M85.4722 43.2263L85.4457 44.0991L83.0199 44.0294L82.9403 46.7737L85.366 46.8467L85.3395 47.7195L79.7712 47.5569L79.7977 46.6841L82.1472 46.7538L82.2268 44.0095L79.8774 43.9398L79.9039 43.067L85.4722 43.2297V43.2263Z" fill="white"/>
<path d="M43.5079 29.4976H31.243C30.9278 29.4976 30.6756 29.2421 30.6756 28.9301C30.6756 28.6182 30.9311 28.3627 31.243 28.3627H43.5079C43.8231 28.3627 44.0753 28.6182 44.0753 28.9301C44.0753 29.2421 43.8198 29.4976 43.5079 29.4976Z" fill="white"/>
<path d="M43.5082 29.4967C43.412 29.4967 43.3157 29.4735 43.2261 29.4204L32.6039 23.2879C32.3318 23.132 32.2389 22.7835 32.3949 22.5114C32.5508 22.2393 32.8992 22.1464 33.1714 22.3024L43.7936 28.4348C44.0657 28.5908 44.1586 28.9392 44.0027 29.2113C43.8965 29.3938 43.7073 29.4967 43.5115 29.4967H43.5082Z" fill="white"/>
<path d="M43.5081 29.4976C43.3124 29.4976 43.1199 29.3947 43.017 29.2122L36.8846 18.59C36.7286 18.3179 36.8215 17.9694 37.0936 17.8135C37.3658 17.6575 37.7109 17.7504 37.8702 18.0225L44.0026 28.6448C44.1585 28.9169 44.0656 29.2653 43.7935 29.4213C43.7039 29.4744 43.6077 29.4976 43.5115 29.4976H43.5081Z" fill="white"/>
<path d="M43.5081 29.4973C43.1929 29.4973 42.9407 29.2418 42.9407 28.9299V16.6617C42.9407 16.3465 43.1962 16.0943 43.5081 16.0943C43.8201 16.0943 44.0756 16.3498 44.0756 16.6617V28.9266C44.0756 29.2418 43.8201 29.494 43.5081 29.494V29.4973Z" fill="white"/>
<path d="M43.5074 29.4976C43.4112 29.4976 43.315 29.4744 43.2254 29.4213C42.9532 29.2653 42.8603 28.9169 43.0163 28.6448L49.1487 18.0225C49.3047 17.7504 49.6531 17.6575 49.9252 17.8135C50.1973 17.9694 50.2903 18.3179 50.1343 18.59L44.0019 29.2122C43.8957 29.3947 43.7065 29.4976 43.5107 29.4976H43.5074Z" fill="white"/>
<path d="M43.5074 29.4967C43.3116 29.4967 43.1192 29.3938 43.0163 29.2113C42.8603 28.9392 42.9532 28.5908 43.2254 28.4348L53.8476 22.3024C54.1197 22.1464 54.4648 22.2393 54.6241 22.5114C54.7801 22.7835 54.6872 23.132 54.415 23.2879L43.7928 29.4204C43.7032 29.4735 43.607 29.4967 43.5107 29.4967H43.5074Z" fill="white"/>
<path d="M55.773 29.4976H43.5081C43.1929 29.4976 42.9407 29.2421 42.9407 28.9301C42.9407 28.6182 43.1962 28.3627 43.5081 28.3627H55.773C56.0883 28.3627 56.3404 28.6182 56.3404 28.9301C56.3404 29.2421 56.0849 29.4976 55.773 29.4976Z" fill="white"/>
<path d="M61.9747 32.7955C62.2004 32.4769 61.8918 32.0555 61.5234 32.1749C59.0578 32.9647 52.8192 34.6007 43.5078 34.6007C34.1963 34.6007 27.9577 32.9647 25.4921 32.1749C25.1204 32.0555 24.8151 32.4769 25.0408 32.7955L31.0504 41.2906C31.2794 41.6125 31.7871 41.4532 31.7871 41.0583V38.8715C31.7871 38.6492 31.9696 38.4666 32.192 38.4666H54.8236C55.0459 38.4666 55.2284 38.6492 55.2284 38.8715V41.0583C55.2284 41.4532 55.7361 41.6158 55.9651 41.2906L61.9747 32.7955Z" fill="white"/>
<path d="M66.2422 44.1882C66.4579 43.8863 66.1858 43.4781 65.824 43.5577C62.7943 44.248 53.5459 46.1494 43.5077 46.1494C33.4695 46.1494 24.2211 44.248 21.1914 43.5577C20.8297 43.4748 20.5576 43.883 20.7733 44.1882L26.8957 52.8427C27.1247 53.1646 27.6324 53.0053 27.6324 52.6104V50.4235C27.6324 50.2012 27.8149 50.0187 28.0373 50.0187H58.9782C59.2005 50.0187 59.383 50.2012 59.383 50.4235V52.6104C59.383 53.0053 59.8907 53.1679 60.1197 52.8427L66.2422 44.1882Z" fill="white"/>
<path d="M69.1189 55.8395C69.3313 55.5408 69.0725 55.1393 68.7141 55.2056C65.326 55.8428 53.8277 57.8537 43.5108 57.8537C33.1938 57.8537 21.6955 55.8428 18.3074 55.2056C17.949 55.1393 17.6902 55.5408 17.9026 55.8395L24.0582 64.5437C24.2872 64.8655 24.7949 64.7063 24.7949 64.308V62.1245C24.7949 61.8989 24.9774 61.7197 25.1998 61.7197H61.8184C62.0441 61.7197 62.2233 61.9022 62.2233 62.1245V64.308C62.2233 64.7029 62.731 64.8655 62.96 64.5437L69.1156 55.8395H69.1189Z" fill="white"/>
</svg>
